<?xml version="1.0" standalone="no"?>
<!DOCTYPE svg PUBLIC "-//W3C//DTD SVG 20010904//EN"
 "http://www.w3.org/TR/2001/REC-SVG-20010904/DTD/svg10.dtd">
<svg version="1.0" xmlns="http://www.w3.org/2000/svg"
 width="260.000000pt" height="260.000000pt" viewBox="0 0 260.000000 260.000000"
 preserveAspectRatio="xMidYMid meet">
<metadata>
Created by potrace 1.11, written by Peter Selinger 2001-2013
</metadata>
<g transform="translate(0.000000,260.000000) scale(0.100000,-0.100000)"
fill="#000000" stroke="none">
<path d="M532 2410 c-272 -49 -457 -224 -512 -485 -22 -107 -20 -257 5 -350
15 -55 93 -223 117 -253 8 -9 79 -12 316 -10 l305 3 88 349 c95 383 96 385
169 386 43 0 73 -20 88 -57 6 -15 52 -172 102 -348 50 -176 97 -340 104 -365
8 -25 29 -98 47 -164 18 -65 35 -112 38 -105 3 8 46 151 96 318 98 323 111
351 165 351 66 0 75 -10 167 -195 l88 -175 269 2 270 3 29 50 c82 137 119 279
112 425 -9 195 -64 330 -181 447 -115 115 -249 169 -445 180 -214 12 -384 -59
-601 -249 l-68 -59 -57 50 c-132 116 -251 190 -370 232 -67 23 -256 34 -341
19z"/>
<path d="M976 1386 c-27 -111 -53 -209 -58 -218 -21 -44 -53 -48 -340 -48
l-273 0 81 -78 c45 -42 145 -138 221 -212 77 -74 249 -241 382 -370 133 -129
256 -242 272 -251 35 -20 67 -15 103 16 25 21 265 252 596 571 63 62 165 160
225 218 l110 105 -80 1 c-44 1 -146 1 -226 0 -95 -1 -155 3 -173 11 -18 9 -40
40 -73 105 -26 51 -48 92 -49 91 -1 -1 -50 -162 -109 -357 -75 -251 -113 -361
-128 -377 -40 -40 -111 -34 -141 12 -8 11 -73 228 -145 481 -72 253 -134 470
-138 481 -6 14 -22 -36 -57 -181z"/>
</g>
</svg>
